<svg width="118" height="33" viewBox="0 0 118 33" fill="none" xmlns="http://www.w3.org/2000/svg">
<path d="M19.5 9H4.5C3.90326 9 3.33097 9.23705 2.90901 9.65901C2.48705 10.081 2.25 10.6533 2.25 11.25V21.75C2.25 22.3467 2.48705 22.919 2.90901 23.341C3.33097 23.7629 3.90326 24 4.5 24H19.5C20.0967 24 20.669 23.7629 21.091 23.341C21.5129 22.919 21.75 22.3467 21.75 21.75V11.25C21.75 10.6533 21.5129 10.081 21.091 9.65901C20.669 9.23705 20.0967 9 19.5 9ZM14.25 15.75C14.25 16.3467 14.0129 16.919 13.591 17.341C13.169 17.7629 12.5967 18 12 18C11.4033 18 10.831 17.7629 10.409 17.341C9.98705 16.919 9.75 16.3467 9.75 15.75C9.75 15.5511 9.67098 15.3603 9.53033 15.2197C9.38968 15.079 9.19891 15 9 15H3.75V13.5H20.25V15H15C14.8011 15 14.6103 15.079 14.4697 15.2197C14.329 15.3603 14.25 15.5511 14.25 15.75ZM4.5 10.5H19.5C19.6989 10.5 19.8897 10.579 20.0303 10.7197C20.171 10.8603 20.25 11.0511 20.25 11.25V12H3.75V11.25C3.75 11.0511 3.82902 10.8603 3.96967 10.7197C4.11032 10.579 4.30109 10.5 4.5 10.5Z" fill="#0F766E"/>
<path d="M37.688 25.432C36.808 25.432 35.912 25.32 35 25.096C34.088 24.888 33.328 24.608 32.72 24.256L32.84 20.992H33.08L33.824 22.552C34.048 23 34.288 23.4 34.544 23.752C34.8 24.088 35.152 24.352 35.6 24.544C35.92 24.704 36.224 24.816 36.512 24.88C36.816 24.928 37.152 24.952 37.52 24.952C38.496 24.952 39.264 24.688 39.824 24.16C40.4 23.632 40.688 22.952 40.688 22.12C40.688 21.336 40.496 20.728 40.112 20.296C39.728 19.848 39.112 19.416 38.264 19L37.28 18.568C35.904 17.96 34.824 17.264 34.04 16.48C33.272 15.68 32.888 14.624 32.888 13.312C32.888 12.368 33.128 11.552 33.608 10.864C34.104 10.176 34.784 9.648 35.648 9.28C36.528 8.912 37.552 8.728 38.72 8.728C39.568 8.728 40.368 8.84 41.12 9.064C41.888 9.288 42.552 9.592 43.112 9.976L42.968 12.856H42.728L41.744 11.056C41.472 10.496 41.2 10.104 40.928 9.88C40.656 9.64 40.344 9.472 39.992 9.376C39.784 9.312 39.592 9.272 39.416 9.256C39.24 9.224 39.016 9.208 38.744 9.208C37.928 9.208 37.24 9.448 36.68 9.928C36.12 10.392 35.84 11.024 35.84 11.824C35.84 12.64 36.056 13.296 36.488 13.792C36.92 14.272 37.552 14.704 38.384 15.088L39.488 15.568C41.024 16.24 42.128 16.96 42.8 17.728C43.472 18.48 43.808 19.456 43.808 20.656C43.808 22.064 43.272 23.216 42.2 24.112C41.144 24.992 39.64 25.432 37.688 25.432ZM44.7613 30.52V30.28L45.0493 30.184C45.6413 30.024 45.9373 29.64 45.9373 29.032V15.976C45.9373 15.624 45.8733 15.36 45.7453 15.184C45.6333 15.008 45.4173 14.888 45.0973 14.824L44.7613 14.752V14.512L48.8413 13.12L49.0813 13.36L49.2973 14.104C49.8253 13.784 50.4093 13.536 51.0493 13.36C51.7053 13.184 52.3773 13.096 53.0653 13.096C54.4413 13.096 55.5293 13.624 56.3293 14.68C57.1453 15.72 57.5533 17.216 57.5533 19.168C57.5533 21.088 57.1053 22.6 56.2093 23.704C55.3293 24.808 54.0813 25.36 52.4653 25.36C51.2013 25.36 50.1373 25.176 49.2733 24.808V28.96C49.2733 29.6 49.5613 30 50.1373 30.16L50.5933 30.28V30.52H44.7613ZM51.3133 24.664C52.1133 24.664 52.7453 24.248 53.2093 23.416C53.6893 22.584 53.9293 21.2 53.9293 19.264C53.9293 17.328 53.7053 15.976 53.2573 15.208C52.8093 14.424 52.1613 14.032 51.3133 14.032C50.7213 14.032 50.0653 14.224 49.3453 14.608V24.28C49.9533 24.536 50.6093 24.664 51.3133 24.664ZM64.8009 13.096C65.8409 13.096 66.7289 13.312 67.4649 13.744C68.2009 14.16 68.7609 14.736 69.1449 15.472C69.5449 16.192 69.7449 17.016 69.7449 17.944C69.7449 18.12 69.7369 18.304 69.7209 18.496C69.7049 18.672 69.6729 18.832 69.6249 18.976H62.4729C62.4889 20.704 62.7929 21.952 63.3849 22.72C63.9929 23.472 64.8889 23.848 66.0729 23.848C66.8729 23.848 67.5209 23.72 68.0169 23.464C68.5129 23.208 68.9769 22.832 69.4089 22.336L69.6489 22.552C69.1529 23.432 68.4889 24.12 67.6569 24.616C66.8409 25.112 65.8569 25.36 64.7049 25.36C63.5689 25.36 62.5609 25.12 61.6809 24.64C60.8009 24.144 60.1129 23.44 59.6169 22.528C59.1209 21.616 58.8729 20.528 58.8729 19.264C58.8729 17.952 59.1609 16.84 59.7369 15.928C60.3129 15 61.0489 14.296 61.9449 13.816C62.8569 13.336 63.8089 13.096 64.8009 13.096ZM64.7289 13.576C64.2649 13.576 63.8649 13.72 63.5289 14.008C63.2089 14.28 62.9529 14.776 62.7609 15.496C62.5849 16.2 62.4889 17.2 62.4729 18.496H66.5769C66.7369 16.752 66.6729 15.496 66.3849 14.728C66.0969 13.96 65.5449 13.576 64.7289 13.576ZM70.9409 25V24.76L71.2769 24.664C71.8369 24.504 72.1169 24.112 72.1169 23.488V15.976C72.1169 15.624 72.0609 15.368 71.9489 15.208C71.8369 15.032 71.6209 14.912 71.3009 14.848L70.9409 14.752V14.512L75.0449 13.12L75.2849 13.36L75.4769 14.8C76.0369 14.304 76.6689 13.896 77.3729 13.576C78.0769 13.256 78.7729 13.096 79.4609 13.096C80.5169 13.096 81.3249 13.384 81.8849 13.96C82.4609 14.536 82.7489 15.416 82.7489 16.6V23.512C82.7489 24.136 83.0529 24.528 83.6609 24.688L83.8769 24.76V25H78.2129V24.76L78.5249 24.664C79.0849 24.488 79.3649 24.096 79.3649 23.488V15.832C79.3649 14.808 78.8529 14.296 77.8289 14.296C77.1249 14.296 76.3569 14.648 75.5249 15.352V23.512C75.5249 24.136 75.8049 24.528 76.3649 24.688L76.5809 24.76V25H70.9409ZM89.9039 25.36C88.9599 25.36 88.1119 25.152 87.3599 24.736C86.6079 24.304 86.0079 23.648 85.5599 22.768C85.1279 21.872 84.9119 20.728 84.9119 19.336C84.9119 17.928 85.1599 16.768 85.6559 15.856C86.1519 14.928 86.8079 14.24 87.6239 13.792C88.4399 13.328 89.3279 13.096 90.2879 13.096C90.8479 13.096 91.3839 13.152 91.8959 13.264C92.4079 13.376 92.8639 13.544 93.2639 13.768V10.648C93.2639 10.312 93.2079 10.064 93.0959 9.904C92.9999 9.744 92.7839 9.632 92.4479 9.568L91.9919 9.472V9.232L96.3599 8.176L96.6239 8.392L96.5279 11.752V23.488C96.5279 23.808 96.5839 24.072 96.6959 24.28C96.8079 24.472 97.0159 24.608 97.3199 24.688L97.5359 24.76V25L93.4319 25.264L93.2159 24.4C92.7839 24.688 92.2879 24.92 91.7279 25.096C91.1839 25.272 90.5759 25.36 89.9039 25.36ZM91.2959 24.472C91.9679 24.472 92.5839 24.272 93.1439 23.872V14.344C92.5519 13.96 91.9439 13.768 91.3199 13.768C90.5519 13.768 89.8959 14.216 89.3519 15.112C88.8079 15.992 88.5359 17.384 88.5359 19.288C88.5359 21.192 88.7919 22.536 89.3039 23.32C89.8159 24.088 90.4799 24.472 91.2959 24.472ZM98.6692 25V24.76L98.9572 24.664C99.5332 24.472 99.8212 24.072 99.8212 23.464V10.624C99.8212 10.304 99.7572 10.064 99.6292 9.904C99.5012 9.728 99.2772 9.6 98.9572 9.52L98.6452 9.448V9.208L103.037 8.176L103.325 8.392L103.229 11.752V19.96C103.229 20.552 103.229 21.144 103.229 21.736C103.245 22.312 103.253 22.888 103.253 23.464C103.253 23.784 103.317 24.048 103.445 24.256C103.573 24.448 103.789 24.592 104.093 24.688L104.405 24.76V25H98.6692ZM107.438 30.76C106.798 30.76 106.286 30.6 105.902 30.28C105.534 29.96 105.35 29.552 105.35 29.056C105.35 28.608 105.51 28.248 105.83 27.976C106.15 27.704 106.51 27.568 106.91 27.568C107.31 27.568 107.646 27.648 107.918 27.808C108.19 27.984 108.43 28.232 108.638 28.552L108.806 28.744C109.158 29.224 109.51 29.216 109.862 28.72C110.006 28.48 110.166 28.16 110.342 27.76C110.534 27.376 110.75 26.856 110.99 26.2L106.334 15.064C106.222 14.76 106.102 14.52 105.974 14.344C105.846 14.152 105.638 13.992 105.35 13.864L104.918 13.696V13.456H110.894V13.672L110.414 13.864C110.062 13.976 109.878 14.16 109.862 14.416C109.862 14.656 109.926 14.96 110.054 15.328L112.55 21.808L114.926 15.256C115.054 14.888 115.102 14.584 115.07 14.344C115.038 14.088 114.838 13.912 114.47 13.816L113.966 13.696V13.456H117.302V13.696L116.774 13.864C116.406 13.976 116.15 14.136 116.006 14.344C115.862 14.552 115.726 14.84 115.598 15.208L111.734 25.744C111.11 27.424 110.486 28.68 109.862 29.512C109.238 30.344 108.43 30.76 107.438 30.76Z" fill="#0F766E"/>
</svg>
